# xmcd
#
# Track frame offsets:
#	150
#	21678
#	42045
#	60991
#	78593
#	98925
#	114166
#	133668
#	151380
#	173231
#	194320
#	210951
#	233104
#	249358
#	269664
#	293423
# Disc length: 4116 seconds
# Revision: 1
# Processed by: cddbd v1.5.2PL0 Copyright (c) Steve Scherf et al.
#
# Submitted via: libkcddb 0.31
#
DISCID=d5101210
DTITLE=deneme - x
DYEAR=1
DGENRE=
TTITLE0=Chernite ochi
TTITLE1=EDNO MI
TTITLE2=NA GOLO
TTITLE3=Drug put
TTITLE4=Ne Znaeю
TTITLE5=Oshte palish
TTITLE6=Obrechi me na liubov
TTITLE7=Edin zivot ne stusa
TTITLE8=chalga - Gloria and Azis - Ne S
TTITLE9=Kazvash che me obichash - Mle
TTITLE10=Obichai me, dokosvai me
TTITLE11=Neka da ne znam
TTITLE12=Azis - Podludiavash me
TTITLE13=Забрави ме
TTITLE14=Iskam, iskam
TTITLE15=Теб обичам само
EXTD=x
EXTT0=
EXTT1=
EXTT2=
EXTT3=
EXTT4=
EXTT5=
EXTT6=
EXTT7=
EXTT8=
EXTT9=
EXTT10=
EXTT11=
EXTT12=
EXTT13=
EXTT14=
EXTT15=
PLAYORDER=
